<svg viewBox="0 0 40 40" xmlns="http://www.w3.org/2000/svg" xmlns:xlink="http://www.w3.org/1999/xlink" width="40.000000" height="40.000000" fill="none" customFrame="#000000">
	<rect id="link" width="40.000000" height="40.000000" x="0.000000" y="0.000000" />
	<path id="Вектор 63" d="M16.6667 21.6669C17.6239 22.9466 18.9288 23.9241 20.426 24.4828C21.9232 25.0416 23.5495 25.158 25.111 24.8183C26.6726 24.4787 28.1035 23.6971 29.2333 22.5669L34.2333 17.5669C35.4421 16.3153 36.2289 14.7168 36.4831 12.9954C36.7374 11.274 36.4464 9.51626 35.6511 7.96864C34.8558 6.42101 33.5959 5.16116 32.0483 4.36582C30.5007 3.57047 28.7429 3.27953 27.0215 3.5338C25.3002 3.78806 23.7016 4.57478 22.45 5.7836L19.5833 8.6336" fill-rule="nonzero" stroke="rgb(234,88,12)" stroke-linecap="round" stroke-linejoin="round" stroke-width="3.333333" />
	<path id="Вектор 64" d="M23.3333 18.3331C22.3761 17.0534 21.0712 16.0759 19.574 15.5172C18.0768 14.9584 16.4505 14.842 14.8889 15.1816C13.3274 15.5213 11.8965 16.3029 10.7667 17.4331L5.76667 22.4331C4.55783 23.6846 3.7711 25.2832 3.51683 27.0046C3.26256 28.726 3.5535 30.4838 4.34885 32.0314C5.14419 33.579 6.40404 34.8389 7.95168 35.6342C9.49931 36.4296 11.2571 36.7205 12.9785 36.4662C14.6998 36.212 16.2984 35.4252 17.55 34.2164L20.4 31.3664" fill-rule="nonzero" stroke="rgb(234,88,12)" stroke-linecap="round" stroke-linejoin="round" stroke-width="3.333333" />
</svg>
